<?xml version="1.0" encoding="UTF-8"?>
<svg xmlns="http://www.w3.org/2000/svg" xmlns:xlink="http://www.w3.org/1999/xlink" width="80px" height="80px" viewBox="0 0 80 80" version="1.1">
<g id="surface1">
<path style=" stroke:none;fill-rule:nonzero;fill:rgb(5.882353%,5.882353%,5.882353%);fill-opacity:1;" d="M 23.332031 53.332031 L 6.667969 53.332031 C 4.824219 53.332031 3.332031 51.839844 3.332031 50 C 3.332031 48.160156 4.824219 46.667969 6.667969 46.667969 L 23.332031 46.667969 C 28.855469 46.667969 33.332031 51.144531 33.332031 56.667969 L 33.332031 73.332031 C 33.332031 75.175781 31.839844 76.667969 30 76.667969 C 28.160156 76.667969 26.667969 75.175781 26.667969 73.332031 L 26.667969 56.667969 C 26.667969 54.824219 25.175781 53.332031 23.332031 53.332031 Z M 23.332031 53.332031 "/>
<path style=" stroke:none;fill-rule:nonzero;fill:rgb(5.882353%,5.882353%,5.882353%);fill-opacity:1;" d="M 33.332031 6.667969 C 33.332031 4.824219 31.839844 3.332031 30 3.332031 C 28.160156 3.332031 26.667969 4.824219 26.667969 6.667969 L 26.667969 23.332031 C 26.667969 25.175781 25.175781 26.667969 23.332031 26.667969 L 6.667969 26.667969 C 4.824219 26.667969 3.332031 28.160156 3.332031 30 C 3.332031 31.839844 4.824219 33.332031 6.667969 33.332031 L 23.332031 33.332031 C 28.855469 33.332031 33.332031 28.855469 33.332031 23.332031 Z M 33.332031 6.667969 "/>
<path style=" stroke:none;fill-rule:nonzero;fill:rgb(5.882353%,5.882353%,5.882353%);fill-opacity:1;" d="M 46.667969 73.332031 C 46.667969 75.175781 48.160156 76.667969 50 76.667969 C 51.839844 76.667969 53.332031 75.175781 53.332031 73.332031 L 53.332031 56.667969 C 53.332031 54.824219 54.824219 53.332031 56.667969 53.332031 L 73.332031 53.332031 C 75.175781 53.332031 76.667969 51.839844 76.667969 50 C 76.667969 48.160156 75.175781 46.667969 73.332031 46.667969 L 56.667969 46.667969 C 51.144531 46.667969 46.667969 51.144531 46.667969 56.667969 Z M 46.667969 73.332031 "/>
<path style=" stroke:none;fill-rule:nonzero;fill:rgb(5.882353%,5.882353%,5.882353%);fill-opacity:1;" d="M 46.667969 23.332031 C 46.667969 28.855469 51.144531 33.332031 56.667969 33.332031 L 73.332031 33.332031 C 75.175781 33.332031 76.667969 31.839844 76.667969 30 C 76.667969 28.160156 75.175781 26.667969 73.332031 26.667969 L 56.667969 26.667969 C 54.824219 26.667969 53.332031 25.175781 53.332031 23.332031 L 53.332031 6.667969 C 53.332031 4.824219 51.839844 3.332031 50 3.332031 C 48.160156 3.332031 46.667969 4.824219 46.667969 6.667969 Z M 46.667969 23.332031 "/>
</g>
</svg>
