<?xml version="1.0" encoding="UTF-8"?>
<svg xmlns="http://www.w3.org/2000/svg" xmlns:xlink="http://www.w3.org/1999/xlink" width="80px" height="80px" viewBox="0 0 80 80" version="1.1">
<g id="surface1">
<path style=" stroke:none;fill-rule:nonzero;fill:rgb(5.882353%,5.882353%,5.882353%);fill-opacity:1;" d="M 76.667969 13.332031 C 76.667969 7.808594 72.191406 3.332031 66.667969 3.332031 L 53.332031 3.332031 C 51.492188 3.332031 50 4.824219 50 6.667969 C 50 8.507812 51.492188 10 53.332031 10 L 66.667969 10 C 68.507812 10 70 11.492188 70 13.332031 L 70 26.667969 C 70 28.507812 71.492188 30 73.332031 30 C 75.175781 30 76.667969 28.507812 76.667969 26.667969 Z M 76.667969 13.332031 "/>
<path style=" stroke:none;fill-rule:nonzero;fill:rgb(5.882353%,5.882353%,5.882353%);fill-opacity:1;" d="M 76.667969 53.332031 C 76.667969 51.492188 75.175781 50 73.332031 50 C 71.492188 50 70 51.492188 70 53.332031 L 70 66.667969 C 70 68.507812 68.507812 70 66.667969 70 L 53.332031 70 C 51.492188 70 50 71.492188 50 73.332031 C 50 75.175781 51.492188 76.667969 53.332031 76.667969 L 66.667969 76.667969 C 72.191406 76.667969 76.667969 72.191406 76.667969 66.667969 Z M 76.667969 53.332031 "/>
<path style=" stroke:none;fill-rule:nonzero;fill:rgb(5.882353%,5.882353%,5.882353%);fill-opacity:1;" d="M 13.332031 70 L 26.667969 70 C 28.507812 70 30 71.492188 30 73.332031 C 30 75.175781 28.507812 76.667969 26.667969 76.667969 L 13.332031 76.667969 C 7.808594 76.667969 3.332031 72.191406 3.332031 66.667969 L 3.332031 53.332031 C 3.332031 51.492188 4.824219 50 6.667969 50 C 8.507812 50 10 51.492188 10 53.332031 L 10 66.667969 C 10 68.507812 11.492188 70 13.332031 70 Z M 13.332031 70 "/>
<path style=" stroke:none;fill-rule:nonzero;fill:rgb(5.882353%,5.882353%,5.882353%);fill-opacity:1;" d="M 3.332031 26.667969 C 3.332031 28.507812 4.824219 30 6.667969 30 C 8.507812 30 10 28.507812 10 26.667969 L 10 13.332031 C 10 11.492188 11.492188 10 13.332031 10 L 26.667969 10 C 28.507812 10 30 8.507812 30 6.667969 C 30 4.824219 28.507812 3.332031 26.667969 3.332031 L 13.332031 3.332031 C 7.808594 3.332031 3.332031 7.808594 3.332031 13.332031 Z M 3.332031 26.667969 "/>
</g>
</svg>
