<?xml version="1.0" encoding="UTF-8"?>
<svg xmlns="http://www.w3.org/2000/svg" xmlns:xlink="http://www.w3.org/1999/xlink" width="80px" height="80px" viewBox="0 0 80 80" version="1.1">
<g id="surface1">
<path style=" stroke:none;fill-rule:evenodd;fill:rgb(0%,0%,0%);fill-opacity:1;" d="M 47.5 25 C 48.878906 25 50 23.882812 50 22.5 L 50 12.5 C 50 11.117188 48.878906 10 47.5 10 C 46.121094 10 45 11.117188 45 12.5 L 45 22.5 C 45 23.882812 46.121094 25 47.5 25 Z M 75 70 C 75 72.761719 72.761719 75 70 75 L 10 75 C 7.238281 75 5 72.761719 5 70 L 5 10 C 5 7.238281 7.238281 5 10 5 L 15 5 L 15 30 C 15 32.761719 17.238281 35 20 35 L 60 35 C 62.761719 35 65 32.761719 65 30 L 65 5 L 70 5 C 72.761719 5 75 7.238281 75 10 Z M 20 5 L 60 5 L 60 27.5 C 60 28.882812 58.878906 30 57.5 30 L 22.5 30 C 21.121094 30 20 28.882812 20 27.5 Z M 70 0 L 10 0 C 4.476562 0 0 4.476562 0 10 L 0 70 C 0 75.523438 4.476562 80 10 80 L 70 80 C 75.523438 80 80 75.523438 80 70 L 80 10 C 80 4.476562 75.523438 0 70 0 Z M 70 0 "/>
</g>
</svg>
