<svg width="167" height="188" viewBox="0 0 167 188" fill="none" xmlns="http://www.w3.org/2000/svg">
<path fill-rule="evenodd" clip-rule="evenodd" d="M83.3516 0C91.4072 0 97.9385 6.53123 97.9385 14.5869C97.9384 20.5264 94.3871 25.6352 89.293 27.9102L89.3916 27.9668C80.7441 33.5267 75.0167 43.2339 75.0166 54.2783C75.0166 54.3435 75.0182 54.4086 75.0186 54.4736C75.0876 65.7755 81.1538 75.6534 90.1963 81.0879H90.1953C90.4984 81.2492 90.7951 81.4209 91.085 81.6025C95.5818 84.1077 100.761 85.5361 106.273 85.5361C111.785 85.5361 116.962 84.1081 121.458 81.6045C123.701 80.1983 126.353 79.3848 129.195 79.3848C137.251 79.3848 143.781 85.9151 143.781 93.9707C143.781 94.0486 143.779 94.1265 143.777 94.2041L143.784 94.2012C143.866 105.487 149.927 115.349 158.959 120.778C163.566 123.23 166.703 128.08 166.703 133.663C166.703 141.719 160.173 148.249 152.117 148.249C144.062 148.249 137.531 141.719 137.531 133.663C137.531 133.502 137.534 133.342 137.539 133.183L137.525 133.191C137.36 122 131.314 112.235 122.339 106.847C122.044 106.689 121.754 106.522 121.472 106.345C116.973 103.836 111.79 102.405 106.273 102.405C100.755 102.405 95.5713 103.837 91.0713 106.347C90.7838 106.526 90.4899 106.697 90.1895 106.856C81.2739 112.217 75.2535 121.9 75.0244 133.006L74.999 132.991C75.0023 133.064 75.0056 133.137 75.0078 133.21L75.0215 133.203C75.0193 133.356 75.0166 133.51 75.0166 133.663C75.0166 145.055 81.1125 155.021 90.2188 160.483C94.8125 162.939 97.9385 167.782 97.9385 173.355C97.9383 181.411 91.4071 187.941 83.3516 187.941C75.2962 187.941 68.7658 181.411 68.7656 173.355C68.7656 173.268 68.767 173.181 68.7686 173.094L68.7617 173.099C68.671 161.811 62.5988 151.951 53.5576 146.53C53.2596 146.371 52.9678 146.202 52.6826 146.022C48.189 143.522 43.0148 142.098 37.5078 142.098C32.0118 142.098 26.8467 143.515 22.3594 146.006C20.1091 147.426 17.4444 148.249 14.5869 148.249C6.53123 148.249 2.78327e-05 141.719 0 133.663C0 125.607 6.53122 119.077 14.5869 119.077C17.4372 119.077 20.0961 119.895 22.3428 121.309C26.8341 123.805 32.0047 125.228 37.5078 125.229C43.021 125.229 48.2002 123.799 52.6973 121.294C52.9873 121.112 53.2837 120.94 53.5869 120.778C53.8411 120.626 54.0934 120.47 54.3428 120.311C63.0048 114.763 68.7495 105.061 68.7646 94.0146H68.7656C68.7656 94.0001 68.7656 93.9853 68.7656 93.9707C68.7656 93.7978 68.7694 93.6256 68.7754 93.4541L68.7588 93.4648C68.5814 82.2862 62.5376 72.5348 53.5693 67.1523C53.2728 66.994 52.9821 66.8262 52.6982 66.6484C48.2009 64.1427 43.0215 62.7129 37.5078 62.7129C31.9974 62.7129 26.8207 64.1405 22.3252 66.6436C20.0822 68.0503 17.4299 68.8652 14.5869 68.8652C6.53122 68.8652 0 62.334 0 54.2783C0.000236042 46.2228 6.53136 39.6924 14.5869 39.6924C17.4236 39.6924 20.0707 40.5033 22.3105 41.9043C26.8096 44.4126 31.9911 45.8437 37.5078 45.8438C43.0277 45.8438 48.212 44.4104 52.7129 41.8994C52.9913 41.7255 53.2758 41.5605 53.5664 41.4053C62.2817 36.1756 68.2372 26.8211 68.7305 16.0391L68.8438 16.1045C68.7922 15.6057 68.7656 15.0994 68.7656 14.5869C68.7656 6.53137 75.2961 0.000225748 83.3516 0ZM152.117 39.6924C160.173 39.6924 166.703 46.2228 166.703 54.2783C166.703 62.334 160.173 68.8652 152.117 68.8652C144.062 68.8651 137.531 62.334 137.531 54.2783C137.531 46.2229 144.062 39.6925 152.117 39.6924Z" fill="#FE5E12"/>
</svg>
